<svg preserveAspectRatio="none" overflow="visible" style="display: block;" width="41" height="40" viewBox="0 0 41 40" fill="none" xmlns="http://www.w3.org/2000/svg">
<g id="Icon">
<path id="Vector" fill-rule="evenodd" clip-rule="evenodd" d="M31.7502 9.58333C31.7502 7.05203 29.6982 5 27.1669 5H13.8336C11.3023 5 9.25024 7.05203 9.25024 9.58333V30.4167C9.25024 32.948 11.3023 35 13.8336 35H27.1669C29.6982 35 31.7502 32.948 31.7502 30.4167V9.58333ZM27.1669 7.5C28.3175 7.5 29.2502 8.43274 29.2502 9.58333V30.4167C29.2502 31.5673 28.3175 32.5 27.1669 32.5H13.8336C12.683 32.5 11.7502 31.5673 11.7502 30.4167V9.58333C11.7502 8.43274 12.683 7.5 13.8336 7.5H27.1669Z" fill="#D9B6FD"/>
<path id="Vector_2" d="M21.5835 30.5196C21.5835 31.118 21.0985 31.603 20.5001 31.603C19.9018 31.603 19.4168 31.118 19.4168 30.5196C19.4168 29.9213 19.9018 29.4363 20.5001 29.4363C21.0985 29.4363 21.5835 29.9213 21.5835 30.5196Z" fill="#D9B6FD"/>
</g>
</svg>
